<svg xmlns="http://www.w3.org/2000/svg" xmlns:xlink="http://www.w3.org/1999/xlink" version="1.1" id="Layer_1" x="0" y="0" viewBox="0 0 1500 383" enable-background="new 0 0 1500 383" xml:space="preserve">
  <path fill="#202020" d="M825.3 383c0.2-51 0.5-102 0.6-153 0.1-71 0-142 0-213 0-5.4 0-10.8 0-17 129.8 0 258.1 0 388.9 0 0 5.5 0 11.3 0 17 0 116 0 232 0 348 0 6 0.4 12 0.6 18C1085.4 383 955.3 383 825.3 383zM1179 352.6c-1.6-47.6-3.3-94.4-4.7-141.3 -1.7-56.9-3-113.8-4.8-170.8 -0.1-4-1.4-9.8-4.2-11.5 -10.1-6.5-28.3 0.6-32.7 11.9 -31.5 81.9-63 163.8-94.5 245.7 -5.7 14.7-11.4 29.3-18.2 46.7 -2.8-6.6-4.3-10-5.7-13.6C979.7 230.5 945 141.3 910.4 52c-9.5-24.6-9.6-24.6-35.9-23.2 -1.4 0.1-2.8 0.9-5.4 1.7 -3.6 107.2-7.2 214.7-10.7 322.2 9 0 15.8 0 23.5 0 2.4-96.4 4.8-191.8 7.3-291.6 3 6.7 4.3 9.3 5.3 11.9 34.8 89.2 69.8 178.3 104.3 267.5 3.9 10 8.2 15.1 20.1 15.2 12.5 0.1 17-5 21.2-15.7 33.6-88 67.8-175.8 102-263.6 1.5-3.8 3.5-7.3 6.6-13.4 2.3 93.6 4.6 184 6.7 274.3C1155.8 357 1157.1 358.1 1179 352.6z"
  />
  <path fill="#202020" d="M0 335c34.9-0.8 70-0.3 104.8-2.8 62.7-4.4 108.7-44.8 120.1-103 14.2-72.5-11.3-136.4-69.2-163.4 -21-9.8-45.7-14-69.1-16.1C58 47.2 28.9 49.6 0 49.9c0-7 0-14 0-21 41.9 1.3 84.5-2 125.5 4.9 83.8 14 134.3 88.1 124.8 175.3 -9.4 87.3-63.7 139.3-151.7 143.7C65.8 354.3 32.9 353 0 353 0 347 0 341 0 335z"
  />
  <path fill="#202020" d="M804 31.3C748.4 84 692.8 136.7 636 190.5c57.7 54.2 114.4 107.4 172.3 161.8 -16.5 4.9-28.4 1.6-39.6-9.1 -47.4-45.1-95.2-89.8-142.9-134.7 -2.7-2.6-5.7-4.9-10.9-9.2 0 52.5 0 102.1 0 152.9 -8.2 0-14.8 0-22.3 0 0-107.4 0-214.1 0-322.7 6.2-0.3 12.4-0.6 20.9-1 0 51.6 0 102 0 152.5 1.2 0.5 2.5 1 3.7 1.4 24.7-23.6 49.4-47.2 74.1-70.9C717.6 86.2 743.1 60 770.5 36c7.6-6.6 20.7-6.9 31.3-10.1C802.6 27.7 803.3 29.5 804 31.3z"
  />
  <path fill="#202020" d="M530.7 30.4c-56.3 53.3-112.1 106.1-169.1 160 57.4 53.9 114.3 107.3 172.2 161.7 -19.3 6.8-31.6-1.2-43.9-12.9 -46.6-44.5-93.6-88.5-140.5-132.7 -2.1-2-4.5-3.8-9.1-7.7 0 52.4 0 102.4 0 153.4 -8.1 0-14.3 0-21.4 0 0-107.4 0-214.5 0-322.3 6.5 0 12.3 0 19.8 0 0 50.8 0 101.5 0 156.5 20.5-19.4 38.1-35.9 55.5-52.7 31.7-30.5 63.4-60.9 94.6-91.8C500.3 30.2 512.7 24.4 530.7 30.4z"
  />
  <path fill="#202020" d="M1500 352.5c-20 4-20.7 2.9-27.5-15.3 -34.6-93.5-69.5-186.9-104.4-280.3 -0.6-1.7-2.1-3.1-4.3-6.1 -19.7 52.1-38.9 102.7-58.1 153.4 -17.1 45.2-34.8 90.2-50.9 135.8 -5.2 14.6-13.1 16.6-27.2 12.8 16.9-44.3 33.6-87.9 50.3-131.5 23.1-60.6 46.5-121 69.2-181.8 3.5-9.5 8.8-11.6 17.8-11.3 8.3 0.3 14.6 0.4 18.3 10.4 38 102.4 76.5 204.6 114.9 306.8C1499 347.8 1499.4 350.2 1500 352.5z"
  />
</svg>