<svg width="1366" height="768" xmlns="http://www.w3.org/2000/svg"><g><path d="M-17,-83L-70,141L-11,17Z" fill="#bf4748" stroke="#bf4748"/><path d="M-17,-83L-11,17L51,-21Z" fill="#c44a48" stroke="#c44a48"/><path d="M-17,-83L51,-21L132,-79Z" fill="#c54b48" stroke="#c54b48"/><path d="M-17,-83L132,-79L212,-78Z" fill="#c34a48" stroke="#c34a48"/><path d="M-17,-83L212,-78L535,-76Z" fill="#b74348" stroke="#b74348"/><path d="M-17,-83L535,-76L1440,-83Z" fill="#932d48" stroke="#932d48"/><path d="M51,-21L-11,17L85,34Z" fill="#bb4548" stroke="#bb4548"/><path d="M51,-21L85,34L119,15Z" fill="#b74348" stroke="#b74348"/><path d="M51,-21L119,15L132,-79Z" fill="#bc4548" stroke="#bc4548"/><path d="M132,-79L119,15L212,-78Z" fill="#ba4548" stroke="#ba4548"/><path d="M212,-78L119,15L232,17Z" fill="#b24048" stroke="#b24048"/><path d="M212,-78L232,17L318,-76Z" fill="#b13f48" stroke="#b13f48"/><path d="M212,-78L318,-76L535,-76Z" fill="#ad3d48" stroke="#ad3d48"/><path d="M318,-76L232,17L323,30Z" fill="#a83a48" stroke="#a83a48"/><path d="M318,-76L323,30L432,-70Z" fill="#a73948" stroke="#a73948"/><path d="M318,-76L432,-70L535,-76Z" fill="#a63948" stroke="#a63948"/><path d="M432,-70L323,30L429,57Z" fill="#9d3348" stroke="#9d3348"/><path d="M432,-70L429,57L556,30Z" fill="#962f48" stroke="#962f48"/><path d="M432,-70L556,30L535,-76Z" fill="#9a3148" stroke="#9a3148"/><path d="M535,-76L556,30L653,-10Z" fill="#902c48" stroke="#902c48"/><path d="M535,-76L653,-10L789,-20Z" fill="#8c2948" stroke="#8c2948"/><path d="M535,-76L789,-20L1089,-57Z" fill="#822948" stroke="#822948"/><path d="M535,-76L1089,-57L1440,-83Z" fill="#722b48" stroke="#722b48"/><path d="M653,-10L556,30L657,54Z" fill="#862548" stroke="#862548"/><path d="M653,-10L657,54L744,78Z" fill="#7e2048" stroke="#7e2048"/><path d="M653,-10L744,78L789,-20Z" fill="#7e2348" stroke="#7e2348"/><path d="M789,-20L744,78L848,14Z" fill="#772248" stroke="#772248"/><path d="M789,-20L848,14L853,-15Z" fill="#782548" stroke="#782548"/><path d="M789,-20L853,-15L970,-25Z" fill="#772648" stroke="#772648"/><path d="M789,-20L970,-25L1089,-57Z" fill="#722748" stroke="#722748"/><path d="M853,-15L848,14L970,-25Z" fill="#742548" stroke="#742548"/><path d="M970,-25L848,14L942,74Z" fill="#6c2248" stroke="#6c2248"/><path d="M970,-25L942,74L1040,115Z" fill="#611f48" stroke="#611f48"/><path d="M970,-25L1040,115L1089,89Z" fill="#5c1f48" stroke="#5c1f48"/><path d="M970,-25L1089,89L1089,-57Z" fill="#642448" stroke="#642448"/><path d="M1089,-57L1089,89L1171,17Z" fill="#5e2348" stroke="#5e2348"/><path d="M1089,-57L1171,17L1182,-27Z" fill="#642648" stroke="#642648"/><path d="M1089,-57L1182,-27L1276,-43Z" fill="#672848" stroke="#672848"/><path d="M1089,-57L1276,-43L1440,-83Z" fill="#6a2a48" stroke="#6a2a48"/><path d="M1182,-27L1171,17L1220,61Z" fill="#5e2348" stroke="#5e2348"/><path d="M1182,-27L1220,61L1276,-43Z" fill="#612548" stroke="#612548"/><path d="M1276,-43L1220,61L1387,25Z" fill="#5e2348" stroke="#5e2348"/><path d="M1276,-43L1387,25L1370,-21Z" fill="#622548" stroke="#622548"/><path d="M1276,-43L1370,-21L1440,-83Z" fill="#682948" stroke="#682948"/><path d="M1370,-21L1387,25L1440,-83Z" fill="#642748" stroke="#642748"/><path d="M1440,-83L1387,25L1466,81Z" fill="#5f2448" stroke="#5f2448"/><path d="M1440,-83L1466,81L1474,116Z" fill="#5a2148" stroke="#5a2148"/><path d="M-11,17L-70,141L27,158Z" fill="#b13f48" stroke="#b13f48"/><path d="M-11,17L27,158L85,34Z" fill="#b24048" stroke="#b24048"/><path d="M85,34L27,158L111,129Z" fill="#a93a48" stroke="#a93a48"/><path d="M85,34L111,129L119,15Z" fill="#ae3d48" stroke="#ae3d48"/><path d="M119,15L111,129L232,17Z" fill="#aa3b48" stroke="#aa3b48"/><path d="M232,17L111,129L224,188Z" fill="#9e3448" stroke="#9e3448"/><path d="M232,17L224,188L323,30Z" fill="#9d3348" stroke="#9d3348"/><path d="M323,30L224,188L380,135Z" fill="#932d48" stroke="#932d48"/><path d="M323,30L380,135L429,57Z" fill="#942d48" stroke="#942d48"/><path d="M429,57L380,135L462,128Z" fill="#8b2848" stroke="#8b2848"/><path d="M429,57L462,128L556,30Z" fill="#8b2848" stroke="#8b2848"/><path d="M556,30L462,128L581,163Z" fill="#812248" stroke="#812248"/><path d="M556,30L581,163L657,54Z" fill="#7f2148" stroke="#7f2148"/><path d="M657,54L581,163L672,180Z" fill="#741a48" stroke="#741a48"/><path d="M657,54L672,180L718,164Z" fill="#701848" stroke="#701848"/><path d="M657,54L718,164L744,78Z" fill="#731b48" stroke="#731b48"/><path d="M744,78L718,164L886,162Z" fill="#661848" stroke="#661848"/><path d="M744,78L886,162L848,14Z" fill="#6b1c48" stroke="#6b1c48"/><path d="M848,14L886,162L942,74Z" fill="#651c48" stroke="#651c48"/><path d="M942,74L886,162L974,118Z" fill="#5c1948" stroke="#5c1948"/><path d="M942,74L974,118L1040,115Z" fill="#5a1b48" stroke="#5a1b48"/><path d="M1089,89L1040,115L1151,165Z" fill="#4d1948" stroke="#4d1948"/><path d="M1089,89L1151,165L1220,61Z" fill="#501a48" stroke="#501a48"/><path d="M1089,89L1220,61L1171,17Z" fill="#581f48" stroke="#581f48"/><path d="M1220,61L1151,165L1211,170Z" fill="#4c1848" stroke="#4c1848"/><path d="M1220,61L1211,170L1389,121Z" fill="#4e1948" stroke="#4e1948"/><path d="M1220,61L1389,121L1387,25Z" fill="#551e48" stroke="#551e48"/><path d="M1387,25L1389,121L1466,81Z" fill="#541d48" stroke="#541d48"/><path d="M1466,81L1389,121L1474,116Z" fill="#501a48" stroke="#501a48"/><path d="M-70,141L-90,468L-62,366Z" fill="#942e48" stroke="#942e48"/><path d="M-70,141L-62,366L-30,288Z" fill="#9b3248" stroke="#9b3248"/><path d="M-70,141L-30,288L27,158Z" fill="#a43748" stroke="#a43748"/><path d="M27,158L-30,288L85,268Z" fill="#993048" stroke="#993048"/><path d="M27,158L85,268L119,213Z" fill="#983048" stroke="#983048"/><path d="M27,158L119,213L111,129Z" fill="#9f3448" stroke="#9f3448"/><path d="M111,129L119,213L224,188Z" fill="#973048" stroke="#973048"/><path d="M224,188L119,213L220,244Z" fill="#8e2a48" stroke="#8e2a48"/><path d="M224,188L220,244L343,269Z" fill="#852448" stroke="#852448"/><path d="M224,188L343,269L380,135Z" fill="#862548" stroke="#862548"/><path d="M380,135L343,269L416,283Z" fill="#7b1f48" stroke="#7b1f48"/><path d="M380,135L416,283L462,128Z" fill="#7f2148" stroke="#7f2148"/><path d="M462,128L416,283L571,283Z" fill="#721948" stroke="#721948"/><path d="M462,128L571,283L581,163Z" fill="#731a48" stroke="#731a48"/><path d="M581,163L571,283L670,267Z" fill="#661248" stroke="#661248"/><path d="M581,163L670,267L672,180Z" fill="#681348" stroke="#681348"/><path d="M672,180L670,267L718,164Z" fill="#641148" stroke="#641148"/><path d="M718,164L670,267L781,261Z" fill="#5d0f48" stroke="#5d0f48"/><path d="M718,164L781,261L886,162Z" fill="#5c1248" stroke="#5c1248"/><path d="M886,162L781,261L881,260Z" fill="#520f48" stroke="#520f48"/><path d="M886,162L881,260L952,289Z" fill="#4c0e48" stroke="#4c0e48"/><path d="M886,162L952,289L1017,269Z" fill="#470e48" stroke="#470e48"/><path d="M886,162L1017,269L974,118Z" fill="#501348" stroke="#501348"/><path d="M974,118L1017,269L1040,115Z" fill="#4d1548" stroke="#4d1548"/><path d="M1040,115L1017,269L1123,256Z" fill="#421048" stroke="#421048"/><path d="M1040,115L1123,256L1151,165Z" fill="#441448" stroke="#441448"/><path d="M1151,165L1123,256L1211,170Z" fill="#411248" stroke="#411248"/><path d="M1211,170L1123,256L1268,262Z" fill="#3c0f48" stroke="#3c0f48"/><path d="M1211,170L1268,262L1389,121Z" fill="#431348" stroke="#431348"/><path d="M1389,121L1268,262L1362,282Z" fill="#3e0f48" stroke="#3e0f48"/><path d="M1389,121L1362,282L1454,266Z" fill="#3d0f48" stroke="#3d0f48"/><path d="M1389,121L1454,266L1474,116Z" fill="#461548" stroke="#461548"/><path d="M1474,116L1454,266L1480,345Z" fill="#3a0e48" stroke="#3a0e48"/><path d="M-30,288L-62,366L54,313Z" fill="#8f2b48" stroke="#8f2b48"/><path d="M-30,288L54,313L85,268Z" fill="#902b48" stroke="#902b48"/><path d="M85,268L54,313L111,338Z" fill="#892748" stroke="#892748"/><path d="M85,268L111,338L220,244Z" fill="#882648" stroke="#882648"/><path d="M85,268L220,244L119,213Z" fill="#8e2a48" stroke="#8e2a48"/><path d="M220,244L111,338L237,312Z" fill="#812248" stroke="#812248"/><path d="M220,244L237,312L343,269Z" fill="#7e2048" stroke="#7e2048"/><path d="M343,269L237,312L377,342Z" fill="#741a48" stroke="#741a48"/><path d="M343,269L377,342L416,283Z" fill="#701848" stroke="#701848"/><path d="M416,283L377,342L433,370Z" fill="#681448" stroke="#681448"/><path d="M416,283L433,370L571,283Z" fill="#661248" stroke="#661248"/><path d="M571,283L433,370L560,372Z" fill="#5d0d48" stroke="#5d0d48"/><path d="M571,283L560,372L638,359Z" fill="#570a48" stroke="#570a48"/><path d="M571,283L638,359L670,267Z" fill="#5a0b48" stroke="#5a0b48"/><path d="M670,267L638,359L710,348Z" fill="#530648" stroke="#530648"/><path d="M670,267L710,348L781,261Z" fill="#530948" stroke="#530948"/><path d="M781,261L710,348L814,318Z" fill="#4c0748" stroke="#4c0748"/><path d="M781,261L814,318L881,260Z" fill="#4c0a48" stroke="#4c0a48"/><path d="M881,260L814,318L952,289Z" fill="#460948" stroke="#460948"/><path d="M952,289L814,318L979,346Z" fill="#3e0648" stroke="#3e0648"/><path d="M952,289L979,346L1017,269Z" fill="#3b0848" stroke="#3b0848"/><path d="M1017,269L979,346L1044,390Z" fill="#330548" stroke="#330548"/><path d="M1017,269L1044,390L1117,381Z" fill="#2d0448" stroke="#2d0448"/><path d="M1017,269L1117,381L1123,256Z" fill="#320848" stroke="#320848"/><path d="M1123,256L1117,381L1286,336Z" fill="#2e0648" stroke="#2e0648"/><path d="M1123,256L1286,336L1268,262Z" fill="#340a48" stroke="#340a48"/><path d="M1268,262L1286,336L1327,325Z" fill="#300748" stroke="#300748"/><path d="M1268,262L1327,325L1362,282Z" fill="#330948" stroke="#330948"/><path d="M1362,282L1327,325L1480,345Z" fill="#2f0748" stroke="#2f0748"/><path d="M1362,282L1480,345L1454,266Z" fill="#320848" stroke="#320848"/><path d="M-62,366L-90,468L42,489Z" fill="#7e2648" stroke="#7e2648"/><path d="M-62,366L42,489L54,313Z" fill="#822448" stroke="#822448"/><path d="M54,313L42,489L111,338Z" fill="#7f2148" stroke="#7f2148"/><path d="M111,338L42,489L161,449Z" fill="#751f48" stroke="#751f48"/><path d="M111,338L161,449L237,312Z" fill="#781d48" stroke="#781d48"/><path d="M237,312L161,449L258,441Z" fill="#6f1948" stroke="#6f1948"/><path d="M237,312L258,441L377,342Z" fill="#6e1748" stroke="#6e1748"/><path d="M377,342L258,441L338,452Z" fill="#631348" stroke="#631348"/><path d="M377,342L338,452L433,370Z" fill="#621048" stroke="#621048"/><path d="M433,370L338,452L450,410Z" fill="#5c0f48" stroke="#5c0f48"/><path d="M433,370L450,410L560,372Z" fill="#5a0b48" stroke="#5a0b48"/><path d="M560,372L450,410L587,467Z" fill="#500848" stroke="#500848"/><path d="M560,372L587,467L638,359Z" fill="#4d0548" stroke="#4d0548"/><path d="M638,359L587,467L668,448Z" fill="#460348" stroke="#460348"/><path d="M638,359L668,448L710,348Z" fill="#490148" stroke="#490148"/><path d="M710,348L668,448L750,486Z" fill="#3f0048" stroke="#3f0048"/><path d="M710,348L750,486L814,318Z" fill="#420048" stroke="#420048"/><path d="M814,318L750,486L852,472Z" fill="#370048" stroke="#370048"/><path d="M814,318L852,472L979,346Z" fill="#380148" stroke="#380148"/><path d="M979,346L852,472L972,477Z" fill="#2b0048" stroke="#2b0048"/><path d="M979,346L972,477L1023,415Z" fill="#290048" stroke="#290048"/><path d="M979,346L1023,415L1044,390Z" fill="#2b0048" stroke="#2b0048"/><path d="M1044,390L1023,415L1117,436Z" fill="#230048" stroke="#230048"/><path d="M1044,390L1117,436L1117,381Z" fill="#210048" stroke="#210048"/><path d="M1117,381L1117,436L1256,437Z" fill="#1f0048" stroke="#1f0048"/><path d="M1117,381L1256,437L1286,336Z" fill="#240048" stroke="#240048"/><path d="M1286,336L1256,437L1383,428Z" fill="#220048" stroke="#220048"/><path d="M1286,336L1383,428L1327,325Z" fill="#280248" stroke="#280248"/><path d="M1327,325L1383,428L1480,345Z" fill="#270248" stroke="#270248"/><path d="M1480,345L1383,428L1448,416Z" fill="#220048" stroke="#220048"/><path d="M1480,345L1448,416L1433,550Z" fill="#1c0048" stroke="#1c0048"/><path d="M1480,345L1433,550L1457,676Z" fill="#0e0048" stroke="#0e0048"/><path d="M1480,345L1457,676L1481,768Z" fill="#030048" stroke="#030048"/><path d="M1480,345L1481,768L1486,888Z" fill="#000048" stroke="#000048"/><path d="M-90,468L-73,787L-58,619Z" fill="#672848" stroke="#672848"/><path d="M-90,468L-58,619L-25,561Z" fill="#6f2748" stroke="#6f2748"/><path d="M-90,468L-25,561L42,489Z" fill="#732648" stroke="#732648"/><path d="M42,489L-25,561L77,570Z" fill="#692348" stroke="#692348"/><path d="M42,489L77,570L179,514Z" fill="#661f48" stroke="#661f48"/><path d="M42,489L179,514L161,449Z" fill="#6a1e48" stroke="#6a1e48"/><path d="M161,449L179,514L258,441Z" fill="#661a48" stroke="#661a48"/><path d="M258,441L179,514L223,581Z" fill="#5d1948" stroke="#5d1948"/><path d="M258,441L223,581L343,545Z" fill="#571648" stroke="#571648"/><path d="M258,441L343,545L338,452Z" fill="#5a1448" stroke="#5a1448"/><path d="M338,452L343,545L428,540Z" fill="#501148" stroke="#501148"/><path d="M338,452L428,540L450,410Z" fill="#540f48" stroke="#540f48"/><path d="M450,410L428,540L532,531Z" fill="#4a0b48" stroke="#4a0b48"/><path d="M450,410L532,531L587,467Z" fill="#490948" stroke="#490948"/><path d="M587,467L532,531L630,578Z" fill="#3b0648" stroke="#3b0648"/><path d="M587,467L630,578L668,448Z" fill="#3b0348" stroke="#3b0348"/><path d="M668,448L630,578L742,571Z" fill="#320048" stroke="#320048"/><path d="M668,448L742,571L750,486Z" fill="#320048" stroke="#320048"/><path d="M750,486L742,571L861,558Z" fill="#270048" stroke="#270048"/><path d="M750,486L861,558L852,472Z" fill="#290048" stroke="#290048"/><path d="M852,472L861,558L928,545Z" fill="#210048" stroke="#210048"/><path d="M852,472L928,545L972,477Z" fill="#220048" stroke="#220048"/><path d="M972,477L928,545L1018,525Z" fill="#1a0048" stroke="#1a0048"/><path d="M972,477L1018,525L1023,415Z" fill="#1e0048" stroke="#1e0048"/><path d="M1023,415L1018,525L1117,436Z" fill="#1c0048" stroke="#1c0048"/><path d="M1117,436L1018,525L1185,532Z" fill="#120048" stroke="#120048"/><path d="M1117,436L1185,532L1256,437Z" fill="#170048" stroke="#170048"/><path d="M1256,437L1185,532L1245,546Z" fill="#110048" stroke="#110048"/><path d="M1256,437L1245,546L1324,559Z" fill="#100048" stroke="#100048"/><path d="M1256,437L1324,559L1383,428Z" fill="#160048" stroke="#160048"/><path d="M1383,428L1324,559L1433,550Z" fill="#100048" stroke="#100048"/><path d="M1383,428L1433,550L1448,416Z" fill="#180048" stroke="#180048"/><path d="M-25,561L-58,619L74,644Z" fill="#622448" stroke="#622448"/><path d="M-25,561L74,644L77,570Z" fill="#602248" stroke="#602248"/><path d="M77,570L74,644L167,683Z" fill="#571f48" stroke="#571f48"/><path d="M77,570L167,683L223,581Z" fill="#531c48" stroke="#531c48"/><path d="M77,570L223,581L179,514Z" fill="#5c1c48" stroke="#5c1c48"/><path d="M223,581L167,683L251,646Z" fill="#4d1948" stroke="#4d1948"/><path d="M223,581L251,646L343,545Z" fill="#4c1648" stroke="#4c1648"/><path d="M343,545L251,646L374,657Z" fill="#441348" stroke="#441348"/><path d="M343,545L374,657L428,540Z" fill="#441048" stroke="#441048"/><path d="M428,540L374,657L443,641Z" fill="#3c0e48" stroke="#3c0e48"/><path d="M428,540L443,641L532,531Z" fill="#3e0c48" stroke="#3e0c48"/><path d="M532,531L443,641L545,642Z" fill="#350a48" stroke="#350a48"/><path d="M532,531L545,642L630,578Z" fill="#330648" stroke="#330648"/><path d="M630,578L545,642L636,644Z" fill="#2b0448" stroke="#2b0448"/><path d="M630,578L636,644L742,571Z" fill="#280148" stroke="#280148"/><path d="M742,571L636,644L718,672Z" fill="#230048" stroke="#230048"/><path d="M742,571L718,672L844,667Z" fill="#1d0048" stroke="#1d0048"/><path d="M742,571L844,667L861,558Z" fill="#1b0048" stroke="#1b0048"/><path d="M861,558L844,667L965,656Z" fill="#120048" stroke="#120048"/><path d="M861,558L965,656L928,545Z" fill="#140048" stroke="#140048"/><path d="M928,545L965,656L1018,525Z" fill="#110048" stroke="#110048"/><path d="M1018,525L965,656L1027,647Z" fill="#090048" stroke="#090048"/><path d="M1018,525L1027,647L1185,532Z" fill="#090048" stroke="#090048"/><path d="M1185,532L1027,647L1138,674Z" fill="#000048" stroke="#000048"/><path d="M1185,532L1138,674L1276,611Z" fill="#020048" stroke="#020048"/><path d="M1185,532L1276,611L1245,546Z" fill="#080048" stroke="#080048"/><path d="M1245,546L1276,611L1324,559Z" fill="#070048" stroke="#070048"/><path d="M1324,559L1276,611L1335,666Z" fill="#010048" stroke="#010048"/><path d="M1324,559L1335,666L1433,550Z" fill="#040048" stroke="#040048"/><path d="M1433,550L1335,666L1457,676Z" fill="#000048" stroke="#000048"/><path d="M-58,619L-73,787L74,644Z" fill="#622548" stroke="#622548"/><path d="M74,644L-73,787L81,781Z" fill="#5e2348" stroke="#5e2348"/><path d="M74,644L81,781L167,683Z" fill="#571f48" stroke="#571f48"/><path d="M167,683L81,781L176,757Z" fill="#541d48" stroke="#541d48"/><path d="M167,683L176,757L251,646Z" fill="#4f1a48" stroke="#4f1a48"/><path d="M251,646L176,757L279,776Z" fill="#4c1848" stroke="#4c1848"/><path d="M251,646L279,776L318,711Z" fill="#471548" stroke="#471548"/><path d="M251,646L318,711L374,657Z" fill="#451448" stroke="#451448"/><path d="M374,657L318,711L471,733Z" fill="#3e1048" stroke="#3e1048"/><path d="M374,657L471,733L443,641Z" fill="#3b0e48" stroke="#3b0e48"/><path d="M443,641L471,733L545,642Z" fill="#360b48" stroke="#360b48"/><path d="M545,642L471,733L566,748Z" fill="#320848" stroke="#320848"/><path d="M545,642L566,748L620,742Z" fill="#2e0648" stroke="#2e0648"/><path d="M545,642L620,742L636,644Z" fill="#2c0548" stroke="#2c0548"/><path d="M636,644L620,742L718,672Z" fill="#260248" stroke="#260248"/><path d="M718,672L620,742L778,716Z" fill="#220048" stroke="#220048"/><path d="M718,672L778,716L844,667Z" fill="#1c0048" stroke="#1c0048"/><path d="M844,667L778,716L823,762Z" fill="#190048" stroke="#190048"/><path d="M844,667L823,762L927,717Z" fill="#140048" stroke="#140048"/><path d="M844,667L927,717L965,656Z" fill="#100048" stroke="#100048"/><path d="M965,656L927,717L1045,714Z" fill="#0a0048" stroke="#0a0048"/><path d="M965,656L1045,714L1027,647Z" fill="#070048" stroke="#070048"/><path d="M1027,647L1045,714L1138,674Z" fill="#020048" stroke="#020048"/><path d="M1138,674L1045,714L1178,738Z" fill="#000048" stroke="#000048"/><path d="M1138,674L1178,738L1276,611Z" fill="#000048" stroke="#000048"/><path d="M1276,611L1178,738L1251,763Z" fill="#000048" stroke="#000048"/><path d="M1276,611L1251,763L1335,666Z" fill="#000048" stroke="#000048"/><path d="M1335,666L1251,763L1354,746Z" fill="#000048" stroke="#000048"/><path d="M1335,666L1354,746L1457,676Z" fill="#000048" stroke="#000048"/><path d="M1457,676L1354,746L1481,768Z" fill="#000048" stroke="#000048"/><path d="M-73,787L-21,855L81,781Z" fill="#612448" stroke="#612448"/><path d="M81,781L-21,855L21,867Z" fill="#5e2348" stroke="#5e2348"/><path d="M81,781L21,867L167,876Z" fill="#582048" stroke="#582048"/><path d="M81,781L167,876L176,757Z" fill="#541d48" stroke="#541d48"/><path d="M176,757L167,876L247,856Z" fill="#4f1a48" stroke="#4f1a48"/><path d="M176,757L247,856L279,776Z" fill="#4c1848" stroke="#4c1848"/><path d="M279,776L247,856L337,829Z" fill="#471548" stroke="#471548"/><path d="M279,776L337,829L318,711Z" fill="#451448" stroke="#451448"/><path d="M318,711L337,829L471,733Z" fill="#3f1048" stroke="#3f1048"/><path d="M471,733L337,829L460,828Z" fill="#3b0e48" stroke="#3b0e48"/><path d="M471,733L460,828L516,822Z" fill="#360b48" stroke="#360b48"/><path d="M471,733L516,822L566,748Z" fill="#330948" stroke="#330948"/><path d="M566,748L516,822L645,859Z" fill="#2e0648" stroke="#2e0648"/><path d="M566,748L645,859L620,742Z" fill="#2b0448" stroke="#2b0448"/><path d="M620,742L645,859L740,833Z" fill="#260148" stroke="#260148"/><path d="M620,742L740,833L778,716Z" fill="#220048" stroke="#220048"/><path d="M778,716L740,833L823,762Z" fill="#1c0048" stroke="#1c0048"/><path d="M823,762L740,833L841,864Z" fill="#1a0048" stroke="#1a0048"/><path d="M823,762L841,864L943,846Z" fill="#140048" stroke="#140048"/><path d="M823,762L943,846L927,717Z" fill="#110048" stroke="#110048"/><path d="M927,717L943,846L1015,830Z" fill="#0c0048" stroke="#0c0048"/><path d="M927,717L1015,830L1045,714Z" fill="#090048" stroke="#090048"/><path d="M1045,714L1015,830L1178,738Z" fill="#010048" stroke="#010048"/><path d="M1178,738L1015,830L1169,867Z" fill="#000048" stroke="#000048"/><path d="M1178,738L1169,867L1251,763Z" fill="#000048" stroke="#000048"/><path d="M1251,763L1169,867L1263,878Z" fill="#000048" stroke="#000048"/><path d="M1251,763L1263,878L1351,856Z" fill="#000048" stroke="#000048"/><path d="M1251,763L1351,856L1354,746Z" fill="#000048" stroke="#000048"/><path d="M1354,746L1351,856L1481,768Z" fill="#000048" stroke="#000048"/><path d="M1481,768L1351,856L1486,888Z" fill="#000048" stroke="#000048"/><path d="M167,876L1486,888L1263,878Z" fill="#0b0048" stroke="#0b0048"/><path d="M167,876L1263,878L841,864Z" fill="#1e0048" stroke="#1e0048"/><path d="M167,876L841,864L645,859Z" fill="#300748" stroke="#300748"/><path d="M167,876L645,859L247,856Z" fill="#411248" stroke="#411248"/><path d="M247,856L645,859L460,828Z" fill="#390c48" stroke="#390c48"/><path d="M247,856L460,828L337,829Z" fill="#421248" stroke="#421248"/><path d="M460,828L645,859L516,822Z" fill="#310848" stroke="#310848"/><path d="M645,859L841,864L740,833Z" fill="#1f0048" stroke="#1f0048"/><path d="M841,864L1263,878L1169,867Z" fill="#000048" stroke="#000048"/><path d="M841,864L1169,867L943,846Z" fill="#0a0048" stroke="#0a0048"/><path d="M943,846L1169,867L1015,830Z" fill="#050048" stroke="#050048"/><path d="M1263,878L1486,888L1351,856Z" fill="#000048" stroke="#000048"/></g><filter id="noise"><feTurbulence type="fractalNoise" in="fillPaint" fill="#F00" baseFrequency="0.7" numOctaves="3" stitchTiles="stitch"/><feComponentTransfer><feFuncR type="linear" slope="2" intercept="-.5"/><feFuncG type="linear" slope="2" intercept="-.5"/><feFuncB type="linear" slope="2" intercept="-.5"/></feComponentTransfer><feColorMatrix type="matrix" values="0.3333 0.3333 0.3333 0 0 
 0.3333 0.3333 0.3333 0 0 
 0.3333 0.3333 0.3333 0 0 
 0 0 0 1 0"/></filter><rect opacity="0.1" width="100%" height="100%" filter="url(#noise)"/></svg>