<?xml version="1.0" encoding="utf-8" ?>
<!-- Generator: Adobe Illustrator 18.1.1, SVG Export Plug-In . SVG Version: 6.00 Build 0)  -->
<svg version="1.1" id="Layer_1" xmlns="http://www.w3.org/2000/svg" xmlns:xlink="http://www.w3.org/1999/xlink" x="0px" y="0px" viewBox="-1934.7 1951.4 74.1 68.2" enable-background="new -1934.7 1951.4 74.1 68.2" xml:space="preserve">
  <g id="Captions">
  </g>
  <g id="Your_Icon">
    <g>
      <path d="M-1892.6,1990.2c1.3,1.2,2.9,1.7,4.4,1.7c3,0,5.7-2.2,5.8-6.5c-0.2-4.2-2.9-6.5-5.8-6.5c-1.5,0-3,0.6-4.4,1.7

			c-0.8,0.7-1.8,1.1-2.6,1.1c-1.6,0-3-1.3-3-4.1v-8.1c0-1.3-1.1-2.4-2.4-2.4h-8.1h0c-4.2,0-5.1-3.3-3-5.7c3.5-4,1.6-9.9-4.7-10.2

			c-6.4,0.3-8.2,6.2-4.7,10.2c2.1,2.4,1.2,5.7-3,5.7h0h-8.1c-1.3,0-2.4,1.1-2.4,2.4v8.1c0,2.7,1.4,4.1,3.1,4.1

			c0.9,0,1.8-0.4,2.6-1.1c1.3-1.2,2.9-1.7,4.4-1.7c3,0,5.7,2.2,5.8,6.5c-0.2,4.2-2.9,6.5-5.8,6.5c-1.5,0-3-0.6-4.4-1.7

			c-0.8-0.7-1.8-1.1-2.6-1.1c-1.6,0-3,1.3-3.1,4.1v8.1c0,1.3,1.1,2.4,2.4,2.4h8.1h0c4.2,0,5.1,3.3,3,5.7c-3.5,4-1.6,9.9,4.7,10.2

			c6.4-0.3,8.2-6.2,4.7-10.2c-2.1-2.4-1.2-5.7,3-5.7l0,0h8.1c1.3,0,2.4-1.1,2.4-2.4v-8.1c0-2.7,1.4-4.1,3-4.1

			C-1894.4,1989.1-1893.5,1989.5-1892.6,1990.2z" />
    </g>
    <g>
      <path d="M-1866.3,1980.7c2.4,2.1,5.7,1.2,5.7-3v-8.1c0-1.3-1.1-2.4-2.4-2.4h-8.1h0c-4.2,0-5.1-3.3-3-5.7c3.5-4,1.6-9.9-4.7-10.2

			c-6.4,0.3-8.2,6.2-4.7,10.2c2.1,2.4,1.2,5.7-3,5.7h0h-8.1c-1.3,0-2.4,1.1-2.4,2.4v0v8.1c0,1.8,0.7,2.9,1.8,2.9

			c0.6,0,1.2-0.3,1.8-0.8c1.5-1.3,3.3-2,5.2-2c4,0,6.8,3.1,7,7.6l0,0.1l0,0c-0.2,4.5-3.1,7.6-7,7.6c-1.8,0-3.7-0.7-5.2-2

			c-0.6-0.5-1.2-0.8-1.8-0.8c-1.1,0-1.8,1.1-1.8,2.9v8.1c0,0,0,0,0,0c0,1.3,1.1,2.4,2.4,2.4h8.1h0c4.2,0,5.1,3.3,3,5.7

			c-3.5,4-1.6,9.9,4.7,10.2c6.4-0.3,8.2-6.2,4.7-10.2c-2.1-2.4-1.2-5.7,3-5.7h0h8.1c1.3,0,2.4-1.1,2.4-2.4v-8.1c0-4.2-3.3-5.1-5.7-3

			c-4,3.5-9.9,1.6-10.2-4.7C-1876.3,1979.1-1870.3,1977.2-1866.3,1980.7z" />
    </g>
  </g>
</svg>