<svg width="3000" height="600" xmlns="http://www.w3.org/2000/svg">
  <g>
    <path d="M-86,-31L-75,685L-53,450Z" fill="#7a2648" stroke="#7a2648" />
    <path d="M-86,-31L-53,450L-40,229Z" fill="#983048" stroke="#983048" />
    <path d="M-86,-31L-40,229L-47,130Z" fill="#ad3d48" stroke="#ad3d48" />
    <path d="M-86,-31L-47,130L-39,50Z" fill="#b94448" stroke="#b94448" />
    <path d="M-86,-31L-39,50L44,-65Z" fill="#c44b48" stroke="#c44b48" />
    <path d="M44,-65L-39,50L75,76Z" fill="#bb4548" stroke="#bb4548" />
    <path d="M44,-65L75,76L175,-31Z" fill="#be4748" stroke="#be4748" />
    <path d="M44,-65L175,-31L360,-81Z" fill="#c54b48" stroke="#c54b48" />
    <path d="M175,-31L75,76L142,77Z" fill="#b34048" stroke="#b34048" />
    <path d="M175,-31L142,77L259,33Z" fill="#b34148" stroke="#b34148" />
    <path d="M175,-31L259,33L233,-24Z" fill="#b94448" stroke="#b94448" />
    <path d="M175,-31L233,-24L360,-81Z" fill="#bf4848" stroke="#bf4848" />
    <path d="M233,-24L259,33L360,-81Z" fill="#ba4448" stroke="#ba4448" />
    <path d="M360,-81L259,33L381,60Z" fill="#b24048" stroke="#b24048" />
    <path d="M360,-81L381,60L425,-75Z" fill="#b74348" stroke="#b74348" />
    <path d="M360,-81L425,-75L973,-89Z" fill="#b94448" stroke="#b94448" />
    <path d="M425,-75L381,60L454,86Z" fill="#ab3b48" stroke="#ab3b48" />
    <path d="M425,-75L454,86L527,21Z" fill="#ac3c48" stroke="#ac3c48" />
    <path d="M425,-75L527,21L544,-21Z" fill="#b13f48" stroke="#b13f48" />
    <path d="M425,-75L544,-21L672,-60Z" fill="#b54148" stroke="#b54148" />
    <path d="M425,-75L672,-60L771,-70Z" fill="#b54148" stroke="#b54148" />
    <path d="M425,-75L771,-70L973,-89Z" fill="#b34048" stroke="#b34048" />
    <path d="M544,-21L527,21L637,43Z" fill="#a63948" stroke="#a63948" />
    <path d="M544,-21L637,43L672,-60Z" fill="#aa3b48" stroke="#aa3b48" />
    <path d="M672,-60L637,43L770,25Z" fill="#a43748" stroke="#a43748" />
    <path d="M672,-60L770,25L771,-70Z" fill="#aa3b48" stroke="#aa3b48" />
    <path d="M771,-70L770,25L876,-61Z" fill="#a73948" stroke="#a73948" />
    <path d="M771,-70L876,-61L973,-89Z" fill="#ac3c48" stroke="#ac3c48" />
    <path d="M876,-61L770,25L811,60Z" fill="#9e3448" stroke="#9e3448" />
    <path d="M876,-61L811,60L912,75Z" fill="#993048" stroke="#993048" />
    <path d="M876,-61L912,75L1016,20Z" fill="#983048" stroke="#983048" />
    <path d="M876,-61L1016,20L973,-89Z" fill="#a33648" stroke="#a33648" />
    <path d="M973,-89L1016,20L1034,-62Z" fill="#a03548" stroke="#a03548" />
    <path d="M973,-89L1034,-62L1124,-64Z" fill="#a53848" stroke="#a53848" />
    <path d="M973,-89L1124,-64L1612,-73Z" fill="#9e3448" stroke="#9e3448" />
    <path d="M973,-89L1612,-73L1990,-78Z" fill="#932e48" stroke="#932e48" />
    <path d="M1034,-62L1016,20L1143,16Z" fill="#973048" stroke="#973048" />
    <path d="M1034,-62L1143,16L1124,-64Z" fill="#9c3248" stroke="#9c3248" />
    <path d="M1124,-64L1143,16L1275,-50Z" fill="#983048" stroke="#983048" />
    <path d="M1124,-64L1275,-50L1612,-73Z" fill="#973048" stroke="#973048" />
    <path d="M1275,-50L1143,16L1214,67Z" fill="#8e2a48" stroke="#8e2a48" />
    <path d="M1275,-50L1214,67L1339,-11Z" fill="#8d2a48" stroke="#8d2a48" />
    <path d="M1275,-50L1339,-11L1454,-36Z" fill="#912c48" stroke="#912c48" />
    <path d="M1275,-50L1454,-36L1612,-73Z" fill="#912c48" stroke="#912c48" />
    <path d="M1339,-11L1214,67L1261,122Z" fill="#812348" stroke="#812348" />
    <path d="M1339,-11L1261,122L1370,52Z" fill="#802248" stroke="#802248" />
    <path d="M1339,-11L1370,52L1454,-36Z" fill="#882748" stroke="#882748" />
    <path d="M1454,-36L1370,52L1455,42Z" fill="#832448" stroke="#832448" />
    <path d="M1454,-36L1455,42L1529,33Z" fill="#832348" stroke="#832348" />
    <path d="M1454,-36L1529,33L1584,-27Z" fill="#852548" stroke="#852548" />
    <path d="M1454,-36L1584,-27L1612,-73Z" fill="#8b2a48" stroke="#8b2a48" />
    <path d="M1584,-27L1529,33L1676,35Z" fill="#7e2348" stroke="#7e2348" />
    <path d="M1584,-27L1676,35L1612,-73Z" fill="#842748" stroke="#842748" />
    <path d="M1612,-73L1676,35L1728,-58Z" fill="#842848" stroke="#842848" />
    <path d="M1612,-73L1728,-58L1990,-78Z" fill="#872d48" stroke="#872d48" />
    <path d="M1728,-58L1676,35L1743,69Z" fill="#792248" stroke="#792248" />
    <path d="M1728,-58L1743,69L1866,-34Z" fill="#7b2548" stroke="#7b2548" />
    <path d="M1728,-58L1866,-34L1990,-78Z" fill="#812b48" stroke="#812b48" />
    <path d="M1866,-34L1743,69L1863,56Z" fill="#712148" stroke="#712148" />
    <path d="M1866,-34L1863,56L1914,73Z" fill="#6f2048" stroke="#6f2048" />
    <path d="M1866,-34L1914,73L1990,-78Z" fill="#762648" stroke="#762648" />
    <path d="M1990,-78L1914,73L2049,-36Z" fill="#732648" stroke="#732648" />
    <path d="M1990,-78L2049,-36L2117,-25Z" fill="#782a48" stroke="#782a48" />
    <path d="M1990,-78L2117,-25L2343,-43Z" fill="#742a48" stroke="#742a48" />
    <path d="M1990,-78L2343,-43L2434,-52Z" fill="#722b48" stroke="#722b48" />
    <path d="M1990,-78L2434,-52L2626,-58Z" fill="#6f2c48" stroke="#6f2c48" />
    <path d="M1990,-78L2626,-58L2789,-63Z" fill="#6e2c48" stroke="#6e2c48" />
    <path d="M2049,-36L1914,73L2072,15Z" fill="#6c2248" stroke="#6c2248" />
    <path d="M2049,-36L2072,15L2117,-25Z" fill="#702648" stroke="#702648" />
    <path d="M2117,-25L2072,15L2156,62Z" fill="#682248" stroke="#682248" />
    <path d="M2117,-25L2156,62L2270,-12Z" fill="#682348" stroke="#682348" />
    <path d="M2117,-25L2270,-12L2343,-43Z" fill="#6c2748" stroke="#6c2748" />
    <path d="M2270,-12L2156,62L2270,70Z" fill="#5f1f48" stroke="#5f1f48" />
    <path d="M2270,-12L2270,70L2361,19Z" fill="#5f2148" stroke="#5f2148" />
    <path d="M2270,-12L2361,19L2343,-43Z" fill="#662648" stroke="#662648" />
    <path d="M2343,-43L2361,19L2418,20Z" fill="#622448" stroke="#622448" />
    <path d="M2343,-43L2418,20L2434,-52Z" fill="#652748" stroke="#652748" />
    <path d="M2434,-52L2418,20L2544,-24Z" fill="#642648" stroke="#642648" />
    <path d="M2434,-52L2544,-24L2626,-58Z" fill="#692a48" stroke="#692a48" />
    <path d="M2544,-24L2418,20L2566,24Z" fill="#5f2348" stroke="#5f2348" />
    <path d="M2544,-24L2566,24L2626,-58Z" fill="#642748" stroke="#642748" />
    <path d="M2626,-58L2566,24L2689,28Z" fill="#612448" stroke="#612448" />
    <path d="M2626,-58L2689,28L2721,22Z" fill="#612548" stroke="#612548" />
    <path d="M2626,-58L2721,22L2789,-63Z" fill="#672848" stroke="#672848" />
    <path d="M2789,-63L2721,22L2867,-13Z" fill="#642648" stroke="#642648" />
    <path d="M2789,-63L2867,-13L2948,-34Z" fill="#682948" stroke="#682948" />
    <path d="M2867,-13L2721,22L2875,42Z" fill="#5d2248" stroke="#5d2248" />
    <path d="M2867,-13L2875,42L2948,-34Z" fill="#612448" stroke="#612448" />
    <path d="M2948,-34L2875,42L2932,66Z" fill="#5b2148" stroke="#5b2148" />
    <path d="M2948,-34L2932,66L3024,-11Z" fill="#5f2348" stroke="#5f2348" />
    <path d="M3024,-11L2932,66L3035,25Z" fill="#5b2148" stroke="#5b2148" />
    <path d="M-39,50L-47,130L75,76Z" fill="#af3e48" stroke="#af3e48" />
    <path d="M75,76L-47,130L77,163Z" fill="#a63848" stroke="#a63848" />
    <path d="M75,76L77,163L142,77Z" fill="#a73948" stroke="#a73948" />
    <path d="M142,77L77,163L118,175Z" fill="#a03548" stroke="#a03548" />
    <path d="M142,77L118,175L215,175Z" fill="#9d3348" stroke="#9d3348" />
    <path d="M142,77L215,175L259,33Z" fill="#a53848" stroke="#a53848" />
    <path d="M259,33L215,175L355,149Z" fill="#9d3348" stroke="#9d3348" />
    <path d="M259,33L355,149L381,60Z" fill="#a33748" stroke="#a33748" />
    <path d="M381,60L355,149L454,86Z" fill="#9d3348" stroke="#9d3348" />
    <path d="M454,86L355,149L477,154Z" fill="#952e48" stroke="#952e48" />
    <path d="M454,86L477,154L527,21Z" fill="#9b3248" stroke="#9b3248" />
    <path d="M527,21L477,154L514,189Z" fill="#942e48" stroke="#942e48" />
    <path d="M527,21L514,189L637,43Z" fill="#993148" stroke="#993148" />
    <path d="M637,43L514,189L667,144Z" fill="#8f2b48" stroke="#8f2b48" />
    <path d="M637,43L667,144L770,25Z" fill="#972f48" stroke="#972f48" />
    <path d="M770,25L667,144L762,174Z" fill="#8c2948" stroke="#8c2948" />
    <path d="M770,25L762,174L811,60Z" fill="#902b48" stroke="#902b48" />
    <path d="M811,60L762,174L863,163Z" fill="#852548" stroke="#852548" />
    <path d="M811,60L863,163L912,75Z" fill="#8a2848" stroke="#8a2848" />
    <path d="M912,75L863,163L938,118Z" fill="#852548" stroke="#852548" />
    <path d="M912,75L938,118L1016,20Z" fill="#8c2948" stroke="#8c2948" />
    <path d="M1016,20L938,118L1020,160Z" fill="#852448" stroke="#852448" />
    <path d="M1016,20L1020,160L1143,16Z" fill="#892748" stroke="#892748" />
    <path d="M1143,16L1020,160L1171,140Z" fill="#7f2148" stroke="#7f2148" />
    <path d="M1143,16L1171,140L1214,67Z" fill="#822348" stroke="#822348" />
    <path d="M1214,67L1171,140L1261,122Z" fill="#7a1e48" stroke="#7a1e48" />
    <path d="M1370,52L1261,122L1382,121Z" fill="#771c48" stroke="#771c48" />
    <path d="M1370,52L1382,121L1455,42Z" fill="#7a1e48" stroke="#7a1e48" />
    <path d="M1455,42L1382,121L1425,136Z" fill="#731a48" stroke="#731a48" />
    <path d="M1455,42L1425,136L1534,143Z" fill="#701848" stroke="#701848" />
    <path d="M1455,42L1534,143L1529,33Z" fill="#761c48" stroke="#761c48" />
    <path d="M1529,33L1534,143L1615,159Z" fill="#6b1748" stroke="#6b1748" />
    <path d="M1529,33L1615,159L1676,35Z" fill="#711b48" stroke="#711b48" />
    <path d="M1676,35L1615,159L1741,153Z" fill="#661648" stroke="#661648" />
    <path d="M1676,35L1741,153L1743,69Z" fill="#6a1a48" stroke="#6a1a48" />
    <path d="M1743,69L1741,153L1882,124Z" fill="#621648" stroke="#621648" />
    <path d="M1743,69L1882,124L1863,56Z" fill="#671a48" stroke="#671a48" />
    <path d="M1863,56L1882,124L1914,73Z" fill="#641a48" stroke="#641a48" />
    <path d="M1914,73L1882,124L1935,125Z" fill="#5e1748" stroke="#5e1748" />
    <path d="M1914,73L1935,125L2065,121Z" fill="#5c1748" stroke="#5c1748" />
    <path d="M1914,73L2065,121L2072,15Z" fill="#621c48" stroke="#621c48" />
    <path d="M2072,15L2065,121L2132,116Z" fill="#5c1a48" stroke="#5c1a48" />
    <path d="M2072,15L2132,116L2156,62Z" fill="#5e1d48" stroke="#5e1d48" />
    <path d="M2156,62L2132,116L2218,173Z" fill="#521648" stroke="#521648" />
    <path d="M2156,62L2218,173L2270,70Z" fill="#531848" stroke="#531848" />
    <path d="M2270,70L2218,173L2311,218Z" fill="#471248" stroke="#471248" />
    <path d="M2270,70L2311,218L2378,189Z" fill="#431148" stroke="#431148" />
    <path d="M2270,70L2378,189L2361,19Z" fill="#501948" stroke="#501948" />
    <path d="M2361,19L2378,189L2418,20Z" fill="#521b48" stroke="#521b48" />
    <path d="M2418,20L2378,189L2485,169Z" fill="#471548" stroke="#471548" />
    <path d="M2418,20L2485,169L2556,114Z" fill="#4c1848" stroke="#4c1848" />
    <path d="M2418,20L2556,114L2566,24Z" fill="#561e48" stroke="#561e48" />
    <path d="M2566,24L2556,114L2689,28Z" fill="#551e48" stroke="#551e48" />
    <path d="M2689,28L2556,114L2660,175Z" fill="#4b1848" stroke="#4b1848" />
    <path d="M2689,28L2660,175L2781,145Z" fill="#491648" stroke="#491648" />
    <path d="M2689,28L2781,145L2721,22Z" fill="#531c48" stroke="#531c48" />
    <path d="M2721,22L2781,145L2875,42Z" fill="#521c48" stroke="#521c48" />
    <path d="M2875,42L2781,145L2833,169Z" fill="#491648" stroke="#491648" />
    <path d="M2875,42L2833,169L2932,66Z" fill="#4e1948" stroke="#4e1948" />
    <path d="M2932,66L2833,169L2948,144Z" fill="#471548" stroke="#471548" />
    <path d="M2932,66L2948,144L3035,25Z" fill="#511b48" stroke="#511b48" />
    <path d="M3035,25L2948,144L3040,168Z" fill="#4a1748" stroke="#4a1748" />
    <path d="M3035,25L3040,168L3069,568Z" fill="#2e0648" stroke="#2e0648" />
    <path d="M-47,130L-40,229L77,163Z" fill="#9d3348" stroke="#9d3348" />
    <path d="M77,163L-40,229L83,261Z" fill="#932d48" stroke="#932d48" />
    <path d="M77,163L83,261L118,175Z" fill="#952e48" stroke="#952e48" />
    <path d="M118,175L83,261L181,289Z" fill="#8b2848" stroke="#8b2848" />
    <path d="M118,175L181,289L215,175Z" fill="#8f2b48" stroke="#8f2b48" />
    <path d="M215,175L181,289L261,276Z" fill="#862548" stroke="#862548" />
    <path d="M215,175L261,276L355,149Z" fill="#8d2a48" stroke="#8d2a48" />
    <path d="M355,149L261,276L369,232Z" fill="#872648" stroke="#872648" />
    <path d="M355,149L369,232L477,154Z" fill="#8d2948" stroke="#8d2948" />
    <path d="M477,154L369,232L462,255Z" fill="#842448" stroke="#842448" />
    <path d="M477,154L462,255L514,189Z" fill="#852548" stroke="#852548" />
    <path d="M514,189L462,255L547,271Z" fill="#7c2048" stroke="#7c2048" />
    <path d="M514,189L547,271L667,144Z" fill="#812248" stroke="#812248" />
    <path d="M667,144L547,271L669,280Z" fill="#791d48" stroke="#791d48" />
    <path d="M667,144L669,280L762,174Z" fill="#7c1f48" stroke="#7c1f48" />
    <path d="M762,174L669,280L775,274Z" fill="#721a48" stroke="#721a48" />
    <path d="M762,174L775,274L879,241Z" fill="#721948" stroke="#721948" />
    <path d="M762,174L879,241L863,163Z" fill="#781d48" stroke="#781d48" />
    <path d="M863,163L879,241L982,231Z" fill="#711948" stroke="#711948" />
    <path d="M863,163L982,231L938,118Z" fill="#791d48" stroke="#791d48" />
    <path d="M938,118L982,231L1020,160Z" fill="#771c48" stroke="#771c48" />
    <path d="M1020,160L982,231L1069,242Z" fill="#6d1648" stroke="#6d1648" />
    <path d="M1020,160L1069,242L1171,140Z" fill="#711948" stroke="#711948" />
    <path d="M1171,140L1069,242L1151,276Z" fill="#671348" stroke="#671348" />
    <path d="M1171,140L1151,276L1254,223Z" fill="#661248" stroke="#661248" />
    <path d="M1171,140L1254,223L1261,122Z" fill="#6f1748" stroke="#6f1748" />
    <path d="M1261,122L1254,223L1343,227Z" fill="#671248" stroke="#671248" />
    <path d="M1261,122L1343,227L1382,121Z" fill="#6c1548" stroke="#6c1548" />
    <path d="M1382,121L1343,227L1425,136Z" fill="#681448" stroke="#681448" />
    <path d="M1425,136L1343,227L1482,256Z" fill="#5e0d48" stroke="#5e0d48" />
    <path d="M1425,136L1482,256L1534,143Z" fill="#620f48" stroke="#620f48" />
    <path d="M1534,143L1482,256L1566,237Z" fill="#590b48" stroke="#590b48" />
    <path d="M1534,143L1566,237L1615,159Z" fill="#5d0f48" stroke="#5d0f48" />
    <path d="M1615,159L1566,237L1629,235Z" fill="#560b48" stroke="#560b48" />
    <path d="M1615,159L1629,235L1741,153Z" fill="#590e48" stroke="#590e48" />
    <path d="M1741,153L1629,235L1763,212Z" fill="#540c48" stroke="#540c48" />
    <path d="M1741,153L1763,212L1882,124Z" fill="#581148" stroke="#581148" />
    <path d="M1882,124L1763,212L1887,215Z" fill="#520e48" stroke="#520e48" />
    <path d="M1882,124L1887,215L1935,125Z" fill="#551248" stroke="#551248" />
    <path d="M1935,125L1887,215L1971,262Z" fill="#4b0c48" stroke="#4b0c48" />
    <path d="M1935,125L1971,262L2065,121Z" fill="#4f1048" stroke="#4f1048" />
    <path d="M2065,121L1971,262L2087,271Z" fill="#430a48" stroke="#430a48" />
    <path d="M2065,121L2087,271L2132,116Z" fill="#4a1048" stroke="#4a1048" />
    <path d="M2132,116L2087,271L2162,282Z" fill="#3f0948" stroke="#3f0948" />
    <path d="M2132,116L2162,282L2218,173Z" fill="#430d48" stroke="#430d48" />
    <path d="M2218,173L2162,282L2253,245Z" fill="#390848" stroke="#390848" />
    <path d="M2218,173L2253,245L2311,218Z" fill="#3b0b48" stroke="#3b0b48" />
    <path d="M2378,189L2311,218L2352,338Z" fill="#310648" stroke="#310648" />
    <path d="M2378,189L2352,338L2469,220Z" fill="#2e0648" stroke="#2e0648" />
    <path d="M2378,189L2469,220L2485,169Z" fill="#3a0d48" stroke="#3a0d48" />
    <path d="M2485,169L2469,220L2530,254Z" fill="#350b48" stroke="#350b48" />
    <path d="M2485,169L2530,254L2556,114Z" fill="#3c0f48" stroke="#3c0f48" />
    <path d="M2556,114L2530,254L2660,175Z" fill="#3c0f48" stroke="#3c0f48" />
    <path d="M2660,175L2530,254L2632,290Z" fill="#300748" stroke="#300748" />
    <path d="M2660,175L2632,290L2758,212Z" fill="#330948" stroke="#330948" />
    <path d="M2660,175L2758,212L2781,145Z" fill="#3d0f48" stroke="#3d0f48" />
    <path d="M2781,145L2758,212L2833,169Z" fill="#3d0f48" stroke="#3d0f48" />
    <path d="M2833,169L2758,212L2831,241Z" fill="#370b48" stroke="#370b48" />
    <path d="M2833,169L2831,241L2948,144Z" fill="#3b0e48" stroke="#3b0e48" />
    <path d="M2948,144L2831,241L2944,275Z" fill="#340a48" stroke="#340a48" />
    <path d="M2948,144L2944,275L3039,211Z" fill="#360b48" stroke="#360b48" />
    <path d="M2948,144L3039,211L3040,168Z" fill="#3d0f48" stroke="#3d0f48" />
    <path d="M3040,168L3039,211L3050,380Z" fill="#2e0648" stroke="#2e0648" />
    <path d="M3040,168L3050,380L3069,568Z" fill="#160048" stroke="#160048" />
    <path d="M-40,229L-53,450L-41,349Z" fill="#7e2548" stroke="#7e2548" />
    <path d="M-40,229L-41,349L83,261Z" fill="#882748" stroke="#882748" />
    <path d="M83,261L-41,349L58,378Z" fill="#7d2348" stroke="#7d2348" />
    <path d="M83,261L58,378L139,362Z" fill="#7a2248" stroke="#7a2248" />
    <path d="M83,261L139,362L181,289Z" fill="#7e2148" stroke="#7e2148" />
    <path d="M181,289L139,362L266,376Z" fill="#742048" stroke="#742048" />
    <path d="M181,289L266,376L261,276Z" fill="#781f48" stroke="#781f48" />
    <path d="M261,276L266,376L319,346Z" fill="#721d48" stroke="#721d48" />
    <path d="M261,276L319,346L369,232Z" fill="#7b1f48" stroke="#7b1f48" />
    <path d="M369,232L319,346L440,326Z" fill="#751b48" stroke="#751b48" />
    <path d="M369,232L440,326L462,255Z" fill="#791e48" stroke="#791e48" />
    <path d="M462,255L440,326L547,271Z" fill="#741b48" stroke="#741b48" />
    <path d="M547,271L440,326L588,346Z" fill="#6c1848" stroke="#6c1848" />
    <path d="M547,271L588,346L669,280Z" fill="#6c1648" stroke="#6c1648" />
    <path d="M669,280L588,346L675,331Z" fill="#661548" stroke="#661548" />
    <path d="M669,280L675,331L730,320Z" fill="#671448" stroke="#671448" />
    <path d="M669,280L730,320L775,274Z" fill="#691448" stroke="#691448" />
    <path d="M775,274L730,320L835,315Z" fill="#651248" stroke="#651248" />
    <path d="M775,274L835,315L879,241Z" fill="#681348" stroke="#681348" />
    <path d="M879,241L835,315L954,332Z" fill="#620f48" stroke="#620f48" />
    <path d="M879,241L954,332L982,231Z" fill="#651248" stroke="#651248" />
    <path d="M982,231L954,332L1028,335Z" fill="#5d0d48" stroke="#5d0d48" />
    <path d="M982,231L1028,335L1069,242Z" fill="#610f48" stroke="#610f48" />
    <path d="M1069,242L1028,335L1151,276Z" fill="#5c0c48" stroke="#5c0c48" />
    <path d="M1151,276L1028,335L1186,380Z" fill="#510948" stroke="#510948" />
    <path d="M1151,276L1186,380L1256,334Z" fill="#4e0848" stroke="#4e0848" />
    <path d="M1151,276L1256,334L1254,223Z" fill="#580948" stroke="#580948" />
    <path d="M1254,223L1256,334L1343,227Z" fill="#580a48" stroke="#580a48" />
    <path d="M1343,227L1256,334L1351,386Z" fill="#4d0548" stroke="#4d0548" />
    <path d="M1343,227L1351,386L1484,318Z" fill="#4b0348" stroke="#4b0348" />
    <path d="M1343,227L1484,318L1482,256Z" fill="#510648" stroke="#510648" />
    <path d="M1482,256L1484,318L1566,237Z" fill="#4e0448" stroke="#4e0448" />
    <path d="M1566,237L1484,318L1559,379Z" fill="#440048" stroke="#440048" />
    <path d="M1566,237L1559,379L1629,235Z" fill="#480248" stroke="#480248" />
    <path d="M1629,235L1559,379L1688,384Z" fill="#3d0048" stroke="#3d0048" />
    <path d="M1629,235L1688,384L1750,365Z" fill="#3b0048" stroke="#3b0048" />
    <path d="M1629,235L1750,365L1763,212Z" fill="#460448" stroke="#460448" />
    <path d="M1763,212L1750,365L1826,345Z" fill="#3c0048" stroke="#3c0048" />
    <path d="M1763,212L1826,345L1887,215Z" fill="#440548" stroke="#440548" />
    <path d="M1887,215L1826,345L1966,324Z" fill="#3a0148" stroke="#3a0148" />
    <path d="M1887,215L1966,324L1971,262Z" fill="#3d0448" stroke="#3d0448" />
    <path d="M1971,262L1966,324L2019,354Z" fill="#320048" stroke="#320048" />
    <path d="M1971,262L2019,354L2087,271Z" fill="#340148" stroke="#340148" />
    <path d="M2087,271L2019,354L2141,386Z" fill="#290048" stroke="#290048" />
    <path d="M2087,271L2141,386L2162,282Z" fill="#2d0048" stroke="#2d0048" />
    <path d="M2162,282L2141,386L2279,364Z" fill="#230048" stroke="#230048" />
    <path d="M2162,282L2279,364L2253,245Z" fill="#2b0148" stroke="#2b0148" />
    <path d="M2253,245L2279,364L2352,338Z" fill="#250048" stroke="#250048" />
    <path d="M2253,245L2352,338L2311,218Z" fill="#2f0448" stroke="#2f0448" />
    <path d="M2469,220L2352,338L2490,348Z" fill="#240048" stroke="#240048" />
    <path d="M2469,220L2490,348L2530,254Z" fill="#290348" stroke="#290348" />
    <path d="M2530,254L2490,348L2575,366Z" fill="#200048" stroke="#200048" />
    <path d="M2530,254L2575,366L2632,290Z" fill="#240048" stroke="#240048" />
    <path d="M2632,290L2575,366L2661,350Z" fill="#1d0048" stroke="#1d0048" />
    <path d="M2632,290L2661,350L2736,338Z" fill="#1f0048" stroke="#1f0048" />
    <path d="M2632,290L2736,338L2758,212Z" fill="#280348" stroke="#280348" />
    <path d="M2758,212L2736,338L2831,241Z" fill="#2c0548" stroke="#2c0548" />
    <path d="M2831,241L2736,338L2856,313Z" fill="#250148" stroke="#250148" />
    <path d="M2831,241L2856,313L2944,275Z" fill="#290348" stroke="#290348" />
    <path d="M2944,275L2856,313L2932,384Z" fill="#1f0048" stroke="#1f0048" />
    <path d="M2944,275L2932,384L3050,380Z" fill="#1b0048" stroke="#1b0048" />
    <path d="M2944,275L3050,380L3039,211Z" fill="#270248" stroke="#270248" />
    <path d="M-41,349L-53,450L58,378Z" fill="#722548" stroke="#722548" />
    <path d="M58,378L-53,450L55,473Z" fill="#692448" stroke="#692448" />
    <path d="M58,378L55,473L115,462Z" fill="#662248" stroke="#662248" />
    <path d="M58,378L115,462L139,362Z" fill="#6c2248" stroke="#6c2248" />
    <path d="M139,362L115,462L275,452Z" fill="#642048" stroke="#642048" />
    <path d="M139,362L275,452L266,376Z" fill="#681f48" stroke="#681f48" />
    <path d="M266,376L275,452L319,346Z" fill="#661d48" stroke="#661d48" />
    <path d="M319,346L275,452L346,487Z" fill="#5e1d48" stroke="#5e1d48" />
    <path d="M319,346L346,487L417,451Z" fill="#5c1c48" stroke="#5c1c48" />
    <path d="M319,346L417,451L440,326Z" fill="#661b48" stroke="#661b48" />
    <path d="M440,326L417,451L551,434Z" fill="#5d1948" stroke="#5d1948" />
    <path d="M440,326L551,434L588,346Z" fill="#621848" stroke="#621848" />
    <path d="M588,346L551,434L675,438Z" fill="#571648" stroke="#571648" />
    <path d="M588,346L675,438L675,331Z" fill="#5c1548" stroke="#5c1548" />
    <path d="M675,331L675,438L730,320Z" fill="#5c1448" stroke="#5c1448" />
    <path d="M730,320L675,438L715,456Z" fill="#531348" stroke="#531348" />
    <path d="M730,320L715,456L836,440Z" fill="#511248" stroke="#511248" />
    <path d="M730,320L836,440L835,315Z" fill="#591148" stroke="#591148" />
    <path d="M835,315L836,440L929,441Z" fill="#4e0f48" stroke="#4e0f48" />
    <path d="M835,315L929,441L954,332Z" fill="#540f48" stroke="#540f48" />
    <path d="M954,332L929,441L1028,335Z" fill="#4f0d48" stroke="#4f0d48" />
    <path d="M1028,335L929,441L1077,469Z" fill="#450c48" stroke="#450c48" />
    <path d="M1028,335L1077,469L1186,380Z" fill="#450a48" stroke="#450a48" />
    <path d="M1186,380L1077,469L1171,440Z" fill="#3c0948" stroke="#3c0948" />
    <path d="M1186,380L1171,440L1218,445Z" fill="#3c0848" stroke="#3c0848" />
    <path d="M1186,380L1218,445L1256,334Z" fill="#420748" stroke="#420748" />
    <path d="M1256,334L1218,445L1351,386Z" fill="#400648" stroke="#400648" />
    <path d="M1351,386L1218,445L1342,486Z" fill="#340548" stroke="#340548" />
    <path d="M1351,386L1342,486L1427,480Z" fill="#2f0348" stroke="#2f0348" />
    <path d="M1351,386L1427,480L1521,417Z" fill="#310248" stroke="#310248" />
    <path d="M1351,386L1521,417L1484,318Z" fill="#3c0148" stroke="#3c0148" />
    <path d="M1484,318L1521,417L1559,379Z" fill="#390048" stroke="#390048" />
    <path d="M1559,379L1521,417L1569,510Z" fill="#2b0048" stroke="#2b0048" />
    <path d="M1559,379L1569,510L1684,448Z" fill="#270048" stroke="#270048" />
    <path d="M1559,379L1684,448L1688,384Z" fill="#2e0048" stroke="#2e0048" />
    <path d="M1688,384L1684,448L1750,365Z" fill="#2c0048" stroke="#2c0048" />
    <path d="M1750,365L1684,448L1738,483Z" fill="#250048" stroke="#250048" />
    <path d="M1750,365L1738,483L1862,434Z" fill="#230048" stroke="#230048" />
    <path d="M1750,365L1862,434L1826,345Z" fill="#2b0048" stroke="#2b0048" />
    <path d="M1826,345L1862,434L1925,420Z" fill="#250048" stroke="#250048" />
    <path d="M1826,345L1925,420L1966,324Z" fill="#2c0048" stroke="#2c0048" />
    <path d="M1966,324L1925,420L2019,354Z" fill="#280048" stroke="#280048" />
    <path d="M2019,354L1925,420L2031,410Z" fill="#220048" stroke="#220048" />
    <path d="M2019,354L2031,410L2141,386Z" fill="#210048" stroke="#210048" />
    <path d="M2141,386L2031,410L2173,460Z" fill="#180048" stroke="#180048" />
    <path d="M2141,386L2173,460L2268,434Z" fill="#130048" stroke="#130048" />
    <path d="M2141,386L2268,434L2279,364Z" fill="#180048" stroke="#180048" />
    <path d="M2279,364L2268,434L2356,436Z" fill="#120048" stroke="#120048" />
    <path d="M2279,364L2356,436L2352,338Z" fill="#170048" stroke="#170048" />
    <path d="M2352,338L2356,436L2490,348Z" fill="#150048" stroke="#150048" />
    <path d="M2490,348L2356,436L2470,452Z" fill="#0e0048" stroke="#0e0048" />
    <path d="M2490,348L2470,452L2564,417Z" fill="#0f0048" stroke="#0f0048" />
    <path d="M2490,348L2564,417L2575,366Z" fill="#150048" stroke="#150048" />
    <path d="M2575,366L2564,417L2673,419Z" fill="#100048" stroke="#100048" />
    <path d="M2575,366L2673,419L2661,350Z" fill="#150048" stroke="#150048" />
    <path d="M2661,350L2673,419L2727,419Z" fill="#110048" stroke="#110048" />
    <path d="M2661,350L2727,419L2736,338Z" fill="#160048" stroke="#160048" />
    <path d="M2736,338L2727,419L2856,313Z" fill="#190048" stroke="#190048" />
    <path d="M2856,313L2727,419L2868,475Z" fill="#100048" stroke="#100048" />
    <path d="M2856,313L2868,475L2932,384Z" fill="#120048" stroke="#120048" />
    <path d="M2932,384L2868,475L2945,462Z" fill="#080048" stroke="#080048" />
    <path d="M2932,384L2945,462L3022,468Z" fill="#090048" stroke="#090048" />
    <path d="M2932,384L3022,468L3050,380Z" fill="#0e0048" stroke="#0e0048" />
    <path d="M3050,380L3022,468L3069,568Z" fill="#020048" stroke="#020048" />
    <path d="M-53,450L-75,685L-29,580Z" fill="#622648" stroke="#622648" />
    <path d="M-53,450L-29,580L43,552Z" fill="#612548" stroke="#612548" />
    <path d="M-53,450L43,552L55,473Z" fill="#602448" stroke="#602448" />
    <path d="M55,473L43,552L115,462Z" fill="#5d2348" stroke="#5d2348" />
    <path d="M115,462L43,552L188,516Z" fill="#5c2148" stroke="#5c2148" />
    <path d="M115,462L188,516L275,452Z" fill="#592048" stroke="#592048" />
    <path d="M275,452L188,516L264,588Z" fill="#571e48" stroke="#571e48" />
    <path d="M275,452L264,588L346,487Z" fill="#541d48" stroke="#541d48" />
    <path d="M346,487L264,588L387,589Z" fill="#531c48" stroke="#531c48" />
    <path d="M346,487L387,589L445,549Z" fill="#511b48" stroke="#511b48" />
    <path d="M346,487L445,549L417,451Z" fill="#501b48" stroke="#501b48" />
    <path d="M417,451L445,549L551,434Z" fill="#4e1948" stroke="#4e1948" />
    <path d="M551,434L445,549L577,553Z" fill="#4b1848" stroke="#4b1848" />
    <path d="M551,434L577,553L675,438Z" fill="#491648" stroke="#491648" />
    <path d="M675,438L577,553L686,530Z" fill="#461548" stroke="#461548" />
    <path d="M675,438L686,530L715,456Z" fill="#461448" stroke="#461448" />
    <path d="M715,456L686,530L780,547Z" fill="#431348" stroke="#431348" />
    <path d="M715,456L780,547L836,440Z" fill="#411248" stroke="#411248" />
    <path d="M836,440L780,547L859,560Z" fill="#3f1048" stroke="#3f1048" />
    <path d="M836,440L859,560L929,441Z" fill="#3d0f48" stroke="#3d0f48" />
    <path d="M929,441L859,560L940,567Z" fill="#3c0e48" stroke="#3c0e48" />
    <path d="M929,441L940,567L1077,469Z" fill="#390d48" stroke="#390d48" />
    <path d="M1077,469L940,567L1068,565Z" fill="#370c48" stroke="#370c48" />
    <path d="M1077,469L1068,565L1143,534Z" fill="#340a48" stroke="#340a48" />
    <path d="M1077,469L1143,534L1171,440Z" fill="#330948" stroke="#330948" />
    <path d="M1171,440L1143,534L1218,445Z" fill="#330848" stroke="#330848" />
    <path d="M1218,445L1143,534L1220,586Z" fill="#310848" stroke="#310848" />
    <path d="M1218,445L1220,586L1342,486Z" fill="#2e0648" stroke="#2e0648" />
    <path d="M1342,486L1220,586L1371,588Z" fill="#2c0548" stroke="#2c0548" />
    <path d="M1342,486L1371,588L1433,515Z" fill="#290348" stroke="#290348" />
    <path d="M1342,486L1433,515L1427,480Z" fill="#280348" stroke="#280348" />
    <path d="M1427,480L1433,515L1521,417Z" fill="#280148" stroke="#280148" />
    <path d="M1521,417L1433,515L1569,510Z" fill="#240048" stroke="#240048" />
    <path d="M1684,448L1569,510L1665,561Z" fill="#1f0048" stroke="#1f0048" />
    <path d="M1684,448L1665,561L1738,483Z" fill="#1c0048" stroke="#1c0048" />
    <path d="M1738,483L1665,561L1732,562Z" fill="#1c0048" stroke="#1c0048" />
    <path d="M1738,483L1732,562L1883,554Z" fill="#190048" stroke="#190048" />
    <path d="M1738,483L1883,554L1862,434Z" fill="#170048" stroke="#170048" />
    <path d="M1862,434L1883,554L1925,420Z" fill="#170048" stroke="#170048" />
    <path d="M1925,420L1883,554L1945,580Z" fill="#140048" stroke="#140048" />
    <path d="M1925,420L1945,580L2018,562Z" fill="#120048" stroke="#120048" />
    <path d="M1925,420L2018,562L2031,410Z" fill="#140048" stroke="#140048" />
    <path d="M2031,410L2018,562L2122,558Z" fill="#0e0048" stroke="#0e0048" />
    <path d="M2031,410L2122,558L2173,460Z" fill="#0d0048" stroke="#0d0048" />
    <path d="M2173,460L2122,558L2263,515Z" fill="#090048" stroke="#090048" />
    <path d="M2173,460L2263,515L2268,434Z" fill="#090048" stroke="#090048" />
    <path d="M2268,434L2263,515L2356,436Z" fill="#080048" stroke="#080048" />
    <path d="M2356,436L2263,515L2356,590Z" fill="#030048" stroke="#030048" />
    <path d="M2356,436L2356,590L2443,566Z" fill="#010048" stroke="#010048" />
    <path d="M2356,436L2443,566L2470,452Z" fill="#000048" stroke="#000048" />
    <path d="M2470,452L2443,566L2581,555Z" fill="#000048" stroke="#000048" />
    <path d="M2470,452L2581,555L2564,417Z" fill="#010048" stroke="#010048" />
    <path d="M2564,417L2581,555L2673,419Z" fill="#040048" stroke="#040048" />
    <path d="M2673,419L2581,555L2620,579Z" fill="#000048" stroke="#000048" />
    <path d="M2673,419L2620,579L2727,419Z" fill="#020048" stroke="#020048" />
    <path d="M2727,419L2620,579L2714,619Z" fill="#000048" stroke="#000048" />
    <path d="M2727,419L2714,619L2785,587Z" fill="#000048" stroke="#000048" />
    <path d="M2727,419L2785,587L2868,475Z" fill="#000048" stroke="#000048" />
    <path d="M2868,475L2785,587L2864,542Z" fill="#000048" stroke="#000048" />
    <path d="M2868,475L2864,542L2945,462Z" fill="#000048" stroke="#000048" />
    <path d="M2945,462L2864,542L2982,530Z" fill="#000048" stroke="#000048" />
    <path d="M2945,462L2982,530L3022,468Z" fill="#000048" stroke="#000048" />
    <path d="M3022,468L2982,530L3069,568Z" fill="#000048" stroke="#000048" />
    <path d="M-29,580L-75,685L64,678Z" fill="#612548" stroke="#612548" />
    <path d="M-29,580L64,678L43,552Z" fill="#5f2448" stroke="#5f2448" />
    <path d="M43,552L64,678L177,684Z" fill="#5c2248" stroke="#5c2248" />
    <path d="M43,552L177,684L188,516Z" fill="#5b2148" stroke="#5b2148" />
    <path d="M188,516L177,684L213,670Z" fill="#592048" stroke="#592048" />
    <path d="M188,516L213,670L264,588Z" fill="#571f48" stroke="#571f48" />
    <path d="M264,588L213,670L367,651Z" fill="#551d48" stroke="#551d48" />
    <path d="M264,588L367,651L387,589Z" fill="#531c48" stroke="#531c48" />
    <path d="M387,589L367,651L460,630Z" fill="#501b48" stroke="#501b48" />
    <path d="M387,589L460,630L445,549Z" fill="#4f1a48" stroke="#4f1a48" />
    <path d="M445,549L460,630L577,553Z" fill="#4c1848" stroke="#4c1848" />
    <path d="M577,553L460,630L584,689Z" fill="#4b1748" stroke="#4b1748" />
    <path d="M577,553L584,689L671,659Z" fill="#481648" stroke="#481648" />
    <path d="M577,553L671,659L686,530Z" fill="#461548" stroke="#461548" />
    <path d="M686,530L671,659L727,632Z" fill="#441448" stroke="#441448" />
    <path d="M686,530L727,632L780,547Z" fill="#431348" stroke="#431348" />
    <path d="M780,547L727,632L833,679Z" fill="#411248" stroke="#411248" />
    <path d="M780,547L833,679L859,560Z" fill="#3f1048" stroke="#3f1048" />
    <path d="M859,560L833,679L934,685Z" fill="#3d0f48" stroke="#3d0f48" />
    <path d="M859,560L934,685L940,567Z" fill="#3c0e48" stroke="#3c0e48" />
    <path d="M940,567L934,685L1072,688Z" fill="#390d48" stroke="#390d48" />
    <path d="M940,567L1072,688L1068,565Z" fill="#370c48" stroke="#370c48" />
    <path d="M1068,565L1072,688L1158,638Z" fill="#340a48" stroke="#340a48" />
    <path d="M1068,565L1158,638L1143,534Z" fill="#330948" stroke="#330948" />
    <path d="M1143,534L1158,638L1220,586Z" fill="#310848" stroke="#310848" />
    <path d="M1220,586L1158,638L1221,683Z" fill="#300748" stroke="#300748" />
    <path d="M1220,586L1221,683L1313,651Z" fill="#2e0648" stroke="#2e0648" />
    <path d="M1220,586L1313,651L1371,588Z" fill="#2c0548" stroke="#2c0548" />
    <path d="M1371,588L1313,651L1426,620Z" fill="#290348" stroke="#290348" />
    <path d="M1371,588L1426,620L1433,515Z" fill="#280248" stroke="#280248" />
    <path d="M1433,515L1426,620L1561,629Z" fill="#250148" stroke="#250148" />
    <path d="M1433,515L1561,629L1569,510Z" fill="#230048" stroke="#230048" />
    <path d="M1569,510L1561,629L1665,561Z" fill="#200048" stroke="#200048" />
    <path d="M1665,561L1561,629L1664,678Z" fill="#1f0048" stroke="#1f0048" />
    <path d="M1665,561L1664,678L1737,618Z" fill="#1d0048" stroke="#1d0048" />
    <path d="M1665,561L1737,618L1732,562Z" fill="#1c0048" stroke="#1c0048" />
    <path d="M1732,562L1737,618L1817,628Z" fill="#1a0048" stroke="#1a0048" />
    <path d="M1732,562L1817,628L1883,554Z" fill="#180048" stroke="#180048" />
    <path d="M1883,554L1817,628L1928,648Z" fill="#150048" stroke="#150048" />
    <path d="M1883,554L1928,648L1945,580Z" fill="#140048" stroke="#140048" />
    <path d="M1945,580L1928,648L2018,562Z" fill="#120048" stroke="#120048" />
    <path d="M2018,562L1928,648L2070,629Z" fill="#100048" stroke="#100048" />
    <path d="M2018,562L2070,629L2122,558Z" fill="#0d0048" stroke="#0d0048" />
    <path d="M2122,558L2070,629L2129,649Z" fill="#0c0048" stroke="#0c0048" />
    <path d="M2122,558L2129,649L2263,515Z" fill="#090048" stroke="#090048" />
    <path d="M2263,515L2129,649L2284,674Z" fill="#070048" stroke="#070048" />
    <path d="M2263,515L2284,674L2356,590Z" fill="#040048" stroke="#040048" />
    <path d="M2356,590L2284,674L2350,633Z" fill="#030048" stroke="#030048" />
    <path d="M2356,590L2350,633L2471,629Z" fill="#010048" stroke="#010048" />
    <path d="M2356,590L2471,629L2443,566Z" fill="#000048" stroke="#000048" />
    <path d="M2443,566L2471,629L2581,555Z" fill="#000048" stroke="#000048" />
    <path d="M2581,555L2471,629L2563,676Z" fill="#000048" stroke="#000048" />
    <path d="M2581,555L2563,676L2620,579Z" fill="#000048" stroke="#000048" />
    <path d="M2620,579L2563,676L2632,623Z" fill="#000048" stroke="#000048" />
    <path d="M2620,579L2632,623L2714,619Z" fill="#000048" stroke="#000048" />
    <path d="M2785,587L2714,619L2879,630Z" fill="#000048" stroke="#000048" />
    <path d="M2785,587L2879,630L2864,542Z" fill="#000048" stroke="#000048" />
    <path d="M2864,542L2879,630L2969,620Z" fill="#000048" stroke="#000048" />
    <path d="M2864,542L2969,620L2982,530Z" fill="#000048" stroke="#000048" />
    <path d="M2982,530L2969,620L3069,568Z" fill="#000048" stroke="#000048" />
    <path d="M3069,568L2969,620L3063,686Z" fill="#000048" stroke="#000048" />
    <path d="M-75,685L584,689L177,684Z" fill="#571f48" stroke="#571f48" />
    <path d="M-75,685L177,684L64,678Z" fill="#5e2348" stroke="#5e2348" />
    <path d="M177,684L584,689L367,651Z" fill="#511b48" stroke="#511b48" />
    <path d="M177,684L367,651L213,670Z" fill="#561e48" stroke="#561e48" />
    <path d="M367,651L584,689L460,630Z" fill="#4d1948" stroke="#4d1948" />
    <path d="M584,689L3063,686L1072,688Z" fill="#210048" stroke="#210048" />
    <path d="M584,689L1072,688L934,685Z" fill="#3e1048" stroke="#3e1048" />
    <path d="M584,689L934,685L833,679Z" fill="#411148" stroke="#411148" />
    <path d="M584,689L833,679L671,659Z" fill="#441448" stroke="#441448" />
    <path d="M671,659L833,679L727,632Z" fill="#431248" stroke="#431248" />
    <path d="M1072,688L3063,686L1664,678Z" fill="#130048" stroke="#130048" />
    <path d="M1072,688L1664,678L1221,683Z" fill="#2b0548" stroke="#2b0548" />
    <path d="M1072,688L1221,683L1158,638Z" fill="#320948" stroke="#320948" />
    <path d="M1221,683L1664,678L1313,651Z" fill="#280348" stroke="#280348" />
    <path d="M1313,651L1664,678L1426,620Z" fill="#260148" stroke="#260148" />
    <path d="M1426,620L1664,678L1561,629Z" fill="#220048" stroke="#220048" />
    <path d="M1664,678L3063,686L2284,674Z" fill="#030048" stroke="#030048" />
    <path d="M1664,678L2284,674L1928,648Z" fill="#120048" stroke="#120048" />
    <path d="M1664,678L1928,648L1817,628Z" fill="#180048" stroke="#180048" />
    <path d="M1664,678L1817,628L1737,618Z" fill="#1b0048" stroke="#1b0048" />
    <path d="M1928,648L2284,674L2129,649Z" fill="#0c0048" stroke="#0c0048" />
    <path d="M1928,648L2129,649L2070,629Z" fill="#0f0048" stroke="#0f0048" />
    <path d="M2284,674L3063,686L2563,676Z" fill="#000048" stroke="#000048" />
    <path d="M2284,674L2563,676L2471,629Z" fill="#000048" stroke="#000048" />
    <path d="M2284,674L2471,629L2350,633Z" fill="#020048" stroke="#020048" />
    <path d="M2563,676L3063,686L2879,630Z" fill="#000048" stroke="#000048" />
    <path d="M2563,676L2879,630L2714,619Z" fill="#000048" stroke="#000048" />
    <path d="M2563,676L2714,619L2632,623Z" fill="#000048" stroke="#000048" />
    <path d="M2879,630L3063,686L2969,620Z" fill="#000048" stroke="#000048" />
  </g>
  <filter id="noise">
    <feTurbulence type="fractalNoise" in="fillPaint" fill="#F00" baseFrequency="0.7" numOctaves="3" stitchTiles="stitch" />
    <feComponentTransfer>
      <feFuncR type="linear" slope="2" intercept="-.5" />
      <feFuncG type="linear" slope="2" intercept="-.5" />
      <feFuncB type="linear" slope="2" intercept="-.5" />
    </feComponentTransfer>
    <feColorMatrix type="matrix" values="0.3333 0.3333 0.3333 0 0   0.3333 0.3333 0.3333 0 0   0.3333 0.3333 0.3333 0 0   0 0 0 1 0" />
  </filter>
  <rect opacity="0.1" width="100%" height="100%" filter="url(#noise)" />
</svg>